<svg width="132" height="42" viewBox="0 0 132 42" fill="none" xmlns="http://www.w3.org/2000/svg">
<g id="logo" clip-path="url(#clip0_6985_1263502)">
<g id="Group">
<path id="Vector" fill-rule="evenodd" clip-rule="evenodd" d="M34.3313 37.7147V18.0093H17.564L18.7396 25.4541H25.6881V32.6606C24.0683 33.552 22.4966 33.9598 20.2934 33.9598C13.3896 33.9598 9.91804 28.6135 9.91804 20.9991C9.91804 13.3847 13.2718 8.26576 20.1828 8.26576C24.3073 8.26576 27.8395 9.79044 30.849 11.7247L32.187 2.98801C28.9919 1.16742 24.8746 0 19.9438 0C7.58821 0 -0.0078125 8.49491 -0.0078125 21.055C-0.0078125 33.6152 7.012 42 19.7137 42C25.2243 42 30.1551 40.4771 34.3331 37.7165L34.3313 37.7147Z" fill="#007AFF"/>
<path id="Vector_2" fill-rule="evenodd" clip-rule="evenodd" d="M66.9404 29.0303C66.9404 22.5815 63.4689 19.5303 54.7704 16.3005C49.7771 14.3699 48.6693 13.372 48.6693 11.3061C48.6693 9.43133 50.1214 8.15926 53.147 8.15926C56.1726 8.15926 59.9848 9.32127 63.5777 11.4306L65.0869 2.98978C61.5993 1.29008 58.2437 0.290466 53.0221 0.290466C45.3708 0.290466 39.3411 4.4459 39.3411 12.2552C39.3411 18.9403 42.8162 21.5855 50.8207 24.689C56.4509 26.8668 57.6068 27.9278 57.6068 30.2085C57.6068 32.6119 55.6356 33.8461 52.7884 33.8461C48.7906 33.8461 44.2148 32.3178 40.0921 30.0966L38.6436 38.6565C42.7074 40.5312 47.2279 41.6968 52.6136 41.6968C60.5664 41.6968 66.9422 37.8337 66.9422 29.0321L66.9404 29.0303Z" fill="#007AFF"/>
</g>
<path id="Vector_3" d="M87.1773 27.1322C91.7941 24.0612 98.0665 20.0663 98.0665 12.4628C98.0665 4.1122 91.0716 0.310425 84.5727 0.310425C74.877 0.310425 70.9684 8.10524 70.4189 9.32138L77.899 12.8615C78.3646 12.0171 80.4465 8.65016 83.9252 8.65016C86.1729 8.65016 88.3672 10.5177 88.3672 13.4209C88.3672 15.7593 85.7626 17.524 82.5212 19.7578C77.3817 23.2997 70.9862 27.7078 70.9862 36.7674C70.9862 37.9547 71.1183 39.2755 71.4019 40.9102H98.0736V32.796H81.6221C81.6221 31.0188 84.1731 29.1278 87.1773 27.1322Z" fill="#2FCCEF"/>
<path id="Subtract" d="M121.229 12.6414C120.715 12.4718 119.807 12.2209 118.888 12.2209C116.339 12.2209 114.275 14.3104 114.275 16.887C114.275 18.639 115.194 20.1367 116.642 20.9631C117.281 21.3275 118.903 21.8201 119.359 22.0673C121.299 23.1156 122.617 25.1834 122.617 27.5634C122.617 31.0043 119.859 33.7956 116.455 33.7956C113.228 33.7956 110.581 31.284 110.317 28.0867L102.061 29.9018C103.406 36.7963 109.414 41.9964 116.626 41.9964C124.827 41.9964 131.476 35.2734 131.476 26.977C131.476 20.3045 127.178 14.5937 121.227 12.6378L121.229 12.6414ZM118.888 19.9923C117.196 19.9923 115.82 18.5993 115.82 16.887C115.82 15.1747 117.197 13.7835 118.888 13.7835C120.58 13.7835 121.957 15.1765 121.957 16.887C121.957 18.5975 120.58 19.9923 118.888 19.9923Z" fill="#2FCCEF"/>
<path id="Vector_4" d="M104.634 0.865845L103.007 19.6131H111.311L112.371 8.96019H121.909C127.552 8.96019 129.604 4.33382 129.604 0.865845H104.634Z" fill="#2FCCEF"/>
</g>
<defs>
<clipPath id="clip0_6985_1263502">
<rect width="131.478" height="42" fill="white"/>
</clipPath>
</defs>
</svg>
